<svg width="104" height="32" viewBox="0 0 104 32" fill="none" xmlns="http://www.w3.org/2000/svg">
<rect width="32" height="32" rx="8" transform="matrix(-1 0 0 1 32 0)" fill="#EC2700"/>
<circle cx="13" cy="13" r="13" transform="matrix(-1 0 0 1 29 3)" fill="#FF7700"/>
<rect width="12" height="20" rx="2" transform="matrix(4.45893e-08 -1 -1 -4.45999e-08 26 22)" fill="#FFCC33"/>
<rect width="13" height="20" rx="2" transform="matrix(-1 0 0 1 22 6)" fill="#FFCC33"/>
<path d="M21.9906 9.00936C22 9.4297 22 9.91425 22 10.4814V20.5186C22 21.0858 22 21.5703 21.9906 21.9906C21.5703 22 21.0857 22 20.5186 22L10.4814 22C9.91425 22 9.4297 22 9.00936 21.9906C9 21.5703 9 21.0857 9 20.5186V10.4814C9 9.91425 9 9.4297 9.00936 9.00936C9.4297 9 9.91425 9 10.4814 9L20.5186 9C21.0858 9 21.5703 9 21.9906 9.00936Z" fill="#FFFCEB"/>
<circle cx="4" cy="4" r="4" transform="matrix(-1 0 0 1 20 12)" fill="#EC2F00"/>
<path d="M45.1314 25H38.7714V7.24H44.8194C47.0274 7.24 48.7794 7.624 50.0274 8.32C52.5474 9.76 54.1314 12.496 54.1314 16.12C54.1314 21.976 50.6754 25 45.1314 25ZM43.3074 21.016H45.3474C47.9634 21.016 49.5954 19.384 49.5954 16.144C49.5954 12.976 47.9874 11.224 45.3714 11.224H43.3074V21.016ZM63.7119 25.336C58.7679 25.336 54.1359 21.784 54.1359 16.528C54.1359 11.032 58.0959 6.904 63.4959 6.904C68.6799 6.904 72.8799 10.912 72.8799 16C72.8799 21.256 68.7999 25.336 63.7119 25.336ZM63.5679 21.352C66.3759 21.352 68.3439 18.976 68.3439 16.144C68.3439 13.36 66.3519 10.888 63.4959 10.888C60.6639 10.888 58.6719 13.264 58.6719 16.072C58.6719 19 60.6639 21.352 63.5679 21.352ZM91.014 13.984H86.262C85.494 12.04 83.814 10.888 81.966 10.888C79.134 10.888 77.214 13.312 77.214 16.072C77.214 18.952 79.182 21.352 81.99 21.352C83.79 21.352 85.326 20.344 86.262 18.352H91.014C89.91 22.624 86.238 25.336 82.038 25.336C79.566 25.336 77.238 24.472 75.414 22.672C73.494 20.8 72.678 18.544 72.678 15.856C72.678 11.152 76.734 6.904 81.822 6.904C84.27 6.904 86.238 7.576 88.014 9.088C89.694 10.528 90.702 12.16 91.014 13.984ZM102.895 12.424H98.4068C98.2148 11.152 97.6868 10.696 96.7988 10.696C95.9588 10.696 95.2388 11.296 95.2388 12.088C95.2388 13.144 96.1988 13.624 98.1428 14.464C102.055 16.144 103.039 17.56 103.039 19.888C103.039 23.32 100.687 25.336 96.8468 25.336C92.9828 25.336 90.4388 23.32 90.4388 19.504V19.12H94.9508C94.9748 20.584 95.6948 21.544 96.8228 21.544C97.7588 21.544 98.5268 20.8 98.5268 19.84C98.5268 18.424 96.5588 17.8 94.9508 17.152C92.0468 15.976 90.7268 14.44 90.7268 12.136C90.7268 9.112 93.6548 6.904 96.9188 6.904C98.0948 6.904 99.1268 7.168 100.063 7.648C101.959 8.632 102.871 10.048 102.895 12.424Z" fill="url(#paint0_linear_3352_2924)"/>
<defs>
<linearGradient id="paint0_linear_3352_2924" x1="37" y1="7" x2="104.978" y2="19.8096" gradientUnits="userSpaceOnUse">
<stop/>
<stop offset="1"/>
</linearGradient>
</defs>
</svg>
