<svg width="307" height="59" viewBox="0 0 307 59" fill="none" xmlns="http://www.w3.org/2000/svg">
<g clip-path="url(#clip0_768_1390)">
<g filter="url(#filter0_dd_768_1390)">
<rect width="58.2857" height="58.2857" rx="14.5714" fill="#FF3C00"/>
<circle cx="29.1428" cy="29.1443" r="23.5188" fill="#FF7700"/>
<rect x="11.248" y="40.1372" width="21.985" height="35.7895" rx="5.8797" transform="rotate(-90 11.248 40.1372)" fill="#FFCC33"/>
<rect x="18.1504" y="11.249" width="21.985" height="35.7895" rx="5.8797" fill="#FFCC33"/>
<path d="M18.1662 18.1677C18.1504 18.8785 18.1504 19.698 18.1504 20.6571V37.6315C18.1504 38.5907 18.1504 39.4101 18.1662 40.121C18.8771 40.1368 19.6965 40.1368 20.6557 40.1368L37.6301 40.1368C38.5892 40.1368 39.4087 40.1368 40.1195 40.121C40.1353 39.4101 40.1353 38.5907 40.1353 37.6315V20.6571C40.1353 19.698 40.1353 18.8785 40.1195 18.1677C39.4087 18.1519 38.5892 18.1519 37.6301 18.1519L20.6557 18.1519C19.6965 18.1519 18.8771 18.1519 18.1662 18.1677Z" fill="#FFFCEB"/>
<circle cx="29.1423" cy="29.1447" r="7.15789" fill="#EC2F00"/>
</g>
<path d="M100.54 51.9831C88.1804 51.9831 76.6004 43.1031 76.6004 29.9631C76.6004 16.2231 86.5004 5.90307 100 5.90307C112.96 5.90307 123.46 15.9231 123.46 28.6431C123.46 41.7831 113.26 51.9831 100.54 51.9831ZM100.18 42.0231C107.2 42.0231 112.12 36.0831 112.12 29.0031C112.12 22.0431 107.14 15.8631 100 15.8631C92.9204 15.8631 87.9404 21.8031 87.9404 28.8231C87.9404 36.1431 92.9204 42.0231 100.18 42.0231ZM141.627 51.1431H129.927L115.107 6.74307H126.747L135.687 37.8831H135.807L144.807 6.74307H156.507L141.627 51.1431ZM177.728 51.1431H153.068V6.74307H177.728V16.7031H163.928V23.6031H177.308V33.5631H163.928V41.1831H177.728V51.1431ZM213.567 51.1431H200.607L190.347 36.8031H190.227V51.1431H179.367V6.74307H193.887C198.507 6.74307 202.047 7.34307 204.387 8.36306C209.187 10.5231 212.547 15.7431 212.547 22.0431C212.547 29.0631 208.347 34.8231 201.507 36.0231L213.567 51.1431ZM190.227 29.0631H194.427C198.927 29.0631 201.687 26.9631 201.687 22.7031C201.687 18.8631 198.807 16.7031 194.547 16.7031H190.227V29.0631ZM235.546 51.1431H211.066V6.74307H222.406V41.1831H235.546V51.1431ZM273.741 51.1431H261.441L259.281 44.7231H243.861L241.521 51.1431H229.341L247.161 6.74307H256.101L273.741 51.1431ZM256.281 35.7231L251.721 20.6031L251.541 20.5431L246.981 35.7231H256.281ZM281.95 51.1431H271.09V6.74307H286.09C290.83 6.68306 294.37 7.34307 296.71 8.42307C301.51 10.6431 304.51 15.7431 304.51 21.7431C304.51 29.9631 299.95 37.2231 287.23 37.2231H281.95V51.1431ZM281.95 27.2631H286.81C291.37 27.2631 293.65 25.7031 293.65 21.9231C293.65 18.3231 291.43 16.7031 286.39 16.7031H281.95V27.2631Z" fill="#FF3C00"/>
</g>
<defs>
<filter id="filter0_dd_768_1390" x="-21.2751" y="-14.1834" width="100.836" height="100.836" filterUnits="userSpaceOnUse" color-interpolation-filters="sRGB">
<feFlood flood-opacity="0" result="BackgroundImageFix"/>
<feColorMatrix in="SourceAlpha" type="matrix" values="0 0 0 0 0 0 0 0 0 0 0 0 0 0 0 0 0 0 127 0" result="hardAlpha"/>
<feOffset/>
<feGaussianBlur stdDeviation="1.32969"/>
<feComposite in2="hardAlpha" operator="out"/>
<feColorMatrix type="matrix" values="0 0 0 0 0 0 0 0 0 0 0 0 0 0 0 0 0 0 0.04 0"/>
<feBlend mode="normal" in2="BackgroundImageFix" result="effect1_dropShadow_768_1390"/>
<feColorMatrix in="SourceAlpha" type="matrix" values="0 0 0 0 0 0 0 0 0 0 0 0 0 0 0 0 0 0 127 0" result="hardAlpha"/>
<feOffset dy="7.09169"/>
<feGaussianBlur stdDeviation="10.6375"/>
<feComposite in2="hardAlpha" operator="out"/>
<feColorMatrix type="matrix" values="0 0 0 0 0 0 0 0 0 0 0 0 0 0 0 0 0 0 0.07 0"/>
<feBlend mode="normal" in2="effect1_dropShadow_768_1390" result="effect2_dropShadow_768_1390"/>
<feBlend mode="normal" in="SourceGraphic" in2="effect2_dropShadow_768_1390" result="shape"/>
</filter>
<clipPath id="clip0_768_1390">
<rect width="306.857" height="58.2857" fill="white"/>
</clipPath>
</defs>
</svg>
